<svg id="Layer_1" xmlns="http://www.w3.org/2000/svg" viewBox="0 0 15.6 11.9"><style>.st0{fill:#677897}</style><title>ldquo</title><path class="st0" d="M3.5 12c-.9 0-1.8-.3-2.5-1-.7-.8-1.1-1.9-1-3 0-1.6.4-3.2 1.3-4.7C2.1 2 3.2.8 4.6 0l1.3.7c-.7.6-1.2 1.3-1.7 2.1-.5.9-.8 1.9-.9 2.9.8 0 1.6.4 2.3.9.6.5.9 1.3.9 2.1 0 .9-.3 1.7-.9 2.4-.5.6-1.3.9-2.1.9zm9.1 0c-.9 0-1.8-.3-2.5-1-.7-.8-1.1-1.9-1-3 0-1.6.4-3.2 1.3-4.7C11.2 2 12.3.8 13.7 0l1.3.7c-.6.6-1.2 1.3-1.6 2.1-.5.9-.9 1.9-.9 2.9.8 0 1.6.4 2.3.9.6.5.9 1.3.9 2.1 0 .9-.3 1.7-.9 2.4-.6.6-1.4.9-2.2.9z"/></svg>