<svg id="OLIVER_BELL_LOGO" xmlns="http://www.w3.org/2000/svg" viewBox="0 0 245.4 67.1"><style>.st0{enable-background:new}</style><g id="LOGO_GROUP"><path d="M52.2 57.6c0 1.1-.2 2-.6 2.9-.4.8-1 1.5-1.8 1.9-.8.4-1.7.6-2.7.6s-1.9-.2-2.6-.7c-.8-.4-1.4-1.1-1.8-1.9s-.7-1.6-.7-2.7v-.6c0-1.1.2-2 .6-2.9s1-1.5 1.8-1.9c.8-.5 1.7-.7 2.7-.7 1 0 1.9.2 2.6.7.8.4 1.4 1.1 1.8 1.9.5.8.7 1.8.7 2.8v.6zm-2.9-.5c0-1.1-.2-1.9-.6-2.5-.4-.6-.9-.9-1.7-.9-1.4 0-2.2 1-2.2 3v.8c0 1.1.2 1.9.6 2.5.4.6.9.9 1.7.9.7 0 1.3-.3 1.6-.9.4-.6.6-1.4.6-2.5v-.4zM63 60.8h4.9v2.1h-7.7V51.8H63v9zm15.6 2.1h-2.8V51.8h2.8v11.1zm13-3l2.3-8.1H97l-3.9 11.1H90l-3.9-11.1h3.1l2.4 8.1zm20.1-1.7h-4.4v2.7h5.2V63h-8V51.8h8v2.1h-5.2v2.3h4.4v2zm12.8.7H123v3.9h-2.8v-11h4.6c1.4 0 2.5.3 3.2.9.8.6 1.2 1.4 1.2 2.5 0 .8-.2 1.4-.5 1.9s-.8.9-1.5 1.2l2.4 4.5v.1h-3l-2.1-4zm-1.5-2h1.8c.5 0 .9-.1 1.2-.4.3-.3.4-.6.4-1.1s-.1-.9-.4-1.1c-.3-.3-.7-.4-1.2-.4H123v3zm25.1 6V51.8h4.2c1.5 0 2.6.3 3.4.8.8.5 1.2 1.3 1.2 2.3 0 .6-.1 1.1-.4 1.5-.3.4-.7.7-1.2.9.6.2 1.1.4 1.4.9.3.4.5.9.5 1.5 0 1.1-.4 1.9-1.1 2.4s-1.8.8-3.2.8h-4.8zm2.8-6.5h1.5c.6 0 1.1-.1 1.3-.3s.4-.5.4-.9c0-.5-.1-.8-.4-1-.3-.2-.7-.3-1.4-.3h-1.4v2.5zm0 1.8v2.7h1.8c.5 0 .9-.1 1.2-.3.3-.2.4-.5.4-.9 0-.9-.5-1.4-1.4-1.4h-2zm21.5 0H168v2.7h5.2V63h-8V51.8h8v2.1H168v2.3h4.4v2zm11.3 2.6h4.9v2.1h-7.7V51.8h2.8v9zm15.4 0h4.9v2.1h-7.7V51.8h2.8v9z" id="OLIVER_BELL" class="st0"/><g id="OLIVER_BELL_ICON"><path id="_Path_" d="M135.6 5.4c-1.7-1.6-3.6-3-5.8-3.9l-1.1 2.1-.2.4-.4.8-.1.3-.4-.1c-1.6-.6-3.2-.9-4.9-.9-1.7 0-3.3.3-4.9.9-2.3.9-4.4 2.3-5.9 4.2-1.4 1.8-2.4 4-2.8 6.3l2.7-.1c.4-1.8 1.2-3.4 2.4-4.8s2.8-2.5 4.5-3.2c1.7-.7 3.6-.9 5.5-.6 1.7.2 3.4.8 4.8 1.8l1.3-2.6.4-.7.2-.3.3.2c1.3.9 2.5 1.9 3.5 3.2 1 1.2 1.8 2.6 2.3 4 1.1 2.9 1.3 6 .6 9-.7 2.9-2.3 5.5-4.5 7.5l1.5 2.2c2.6-2.4 4.5-5.5 5.5-8.9.9-3.6.7-7.3-.7-10.8-.9-2.2-2.2-4.3-3.8-6z"/><path id="_Path_2" d="M122.5 0c-2.1 0-4.2.4-6.2 1.2-3.8 1.4-6.9 4-9 7.5-2 3.4-2.9 7.3-2.4 11.2l2.2-.1.8-.1h1.1l.1.3c.1.5.2.9.3 1.4.1.5.3.9.5 1.3 2.8 7 10.6 10.6 17.7 7.9l-1.4-2.2c-2.7.9-5.6.7-8.2-.5-2.6-1.2-4.7-3.4-5.7-6.1-.3-.8-.5-1.7-.6-2.5-.1-.7-.2-1.5-.1-2.2l-2.6.1-.3.1h-.9l-.4.1.1-.4c.2-2.9 1.2-5.7 2.9-8.1 1.8-2.3 4.1-4.1 6.9-5.2 1.6-.6 3.3-1 5.1-1 1.6-.1 3.3.2 4.9.7l1.2-2.4c-2.1-.8-4.1-1-6-1z"/><path id="_Path_3" d="M131.4 33.3c.7-.4 1.3-.8 1.9-1.2l-1.4-2.2-.2-.3-.5-.7-.1-.3.2-.2c2.3-1.8 3.9-4.3 4.7-7.1.7-2.8.6-5.8-.5-8.5-.5-1.2-1.1-2.2-1.8-3.2-.7-.9-1.5-1.7-2.3-2.4l-1.2 2.4c.6.5 1.2 1.2 1.6 1.9.5.7 1 1.5 1.3 2.4 1 2.7 1 5.6-.1 8.3-1.1 2.5-3 4.5-5.5 5.8l1.5 2.4.5.7.2.3-.3.2-.6.3c-.2.1-.4.2-.7.3-3.8 1.5-8 1.4-11.7-.3-3.7-1.7-6.6-4.7-8.1-8.5-.1-.3-.3-.7-.3-1l-.3-.9-2.6.1.3 1.2c.1.5.3 1 .5 1.5 1.7 4.4 5.1 8 9.4 9.9 4.3 1.9 9.3 2.1 13.7.4.9-.4 1.7-.8 2.4-1.3z"/></g></g></svg>