<svg id="Layer_1" xmlns="http://www.w3.org/2000/svg" viewBox="0 0 15.6 11.9"><style>.st0{fill:#677897}</style><title>rdquo</title><path class="st0" d="M.6 11.3c.6-.6 1.2-1.3 1.6-2.1.5-.9.9-1.9.9-2.9-.8 0-1.6-.4-2.3-.9C.3 4.8 0 4 0 3.2 0 2.3.3 1.5.9.9 1.5.3 2.2 0 3.1 0 4 0 4.9.3 5.5 1c.7.8 1.1 1.9 1 3 0 1.6-.4 3.2-1.3 4.6C4.5 10 3.3 11.1 2 12l-1.4-.7zm9.2 0c.6-.6 1.2-1.3 1.6-2.1.5-.9.9-1.9.9-2.9-.9 0-1.7-.4-2.3-.9-.6-.6-.9-1.4-.9-2.2 0-.9.3-1.7.9-2.3.6-.6 1.4-.9 2.2-.9.9 0 1.8.3 2.5 1 .7.8 1.1 1.9 1 2.9 0 1.6-.4 3.3-1.3 4.7-.8 1.4-1.9 2.6-3.3 3.4l-1.3-.7z"/></svg>